<svg width="26" height="20" viewBox="0 0 26 20" fill="none" xmlns="http://www.w3.org/2000/svg">
<path d="M22.31 2.63835C20.35 1.07501 17.55 0.643348 16.3367 0.515015H16.29C16.1034 0.515015 15.9284 0.620015 15.87 0.795015C15.765 1.06335 15.9284 1.35501 16.1967 1.40168C17.5617 1.68168 19.1367 2.17168 20.5717 3.07001C20.8634 3.24501 20.9334 3.64168 20.7 3.91001C20.5134 4.12001 20.1984 4.14335 19.9534 4.00335C17.1534 2.27668 13.6767 2.18335 13 2.18335C12.3234 2.18335 8.84669 2.27668 6.04669 4.00335C5.80169 4.14335 5.48669 4.12001 5.30002 3.91001C5.06669 3.64168 5.13669 3.24501 5.42835 3.07001C6.86335 2.17168 8.43835 1.68168 9.80335 1.40168C10.0717 1.35501 10.235 1.06335 10.13 0.795015C10.0717 0.620015 9.89669 0.515015 9.71002 0.515015H9.66335C8.45002 0.643348 5.65002 1.07501 3.69002 2.63835C2.54669 3.70001 0.271687 9.80168 0.166687 15.2033C0.166687 15.565 0.26002 15.9267 0.47002 16.2183C1.83502 18.1433 4.79835 19.2983 7.03835 19.4617C7.37669 19.485 7.70335 19.3333 7.90169 19.0533C7.91335 19.0533 7.91335 19.0417 7.92502 19.03C8.33335 18.47 8.08835 17.6767 7.43502 17.4317C5.56835 16.7433 4.61169 15.9267 4.55335 15.8683C4.32002 15.6583 4.29669 15.3083 4.49502 15.075C4.70502 14.8417 5.05502 14.8183 5.28835 15.0283C5.32335 15.0517 7.91335 17.2567 13 17.2567C18.0867 17.2567 20.6767 15.0517 20.7117 15.0283C20.945 14.8183 21.295 14.8417 21.505 15.075C21.7034 15.3083 21.68 15.6583 21.4467 15.8683C21.3884 15.9267 20.4317 16.7433 18.565 17.4317C17.9117 17.6767 17.6667 18.47 18.075 19.03C18.0867 19.0417 18.0867 19.0533 18.0984 19.0533C18.2967 19.3333 18.6234 19.485 18.9617 19.4617C21.2017 19.2983 24.165 18.1433 25.53 16.2183C25.74 15.9267 25.8334 15.565 25.8334 15.2033C25.7284 9.80168 23.4534 3.70001 22.31 2.63835ZM9.37169 13.3483C8.29835 13.3483 7.42335 12.345 7.42335 11.12C7.42335 9.88335 8.29835 8.88001 9.37169 8.88001C10.4567 8.88001 11.32 9.88335 11.32 11.12C11.32 12.345 10.4567 13.3483 9.37169 13.3483ZM16.6284 13.3483C15.5434 13.3483 14.68 12.345 14.68 11.12C14.68 9.88335 15.5434 8.88001 16.6284 8.88001C17.7017 8.88001 18.5767 9.88335 18.5767 11.12C18.5767 12.345 17.7017 13.3483 16.6284 13.3483Z" fill="white"/>
</svg>
