<svg width="44" height="45" viewBox="0 0 44 45" fill="none" xmlns="http://www.w3.org/2000/svg">
<path d="M21.9948 31.875C19.4337 31.875 19.1318 31.8615 18.1324 31.8178C17.353 31.7922 16.5837 31.634 15.8576 31.35C14.6013 30.8618 13.6079 29.8695 13.1195 28.6149C12.846 27.8872 12.6985 27.1184 12.6833 26.3413C12.625 25.3454 12.625 25.0189 12.625 22.4813C12.625 19.9166 12.6385 19.6172 12.6833 18.6244C12.6989 17.8484 12.8464 17.0806 13.1195 16.354C13.6074 15.0976 14.6024 14.1045 15.8607 13.6178C16.5881 13.3435 17.3571 13.1958 18.1344 13.1811C19.1287 13.125 19.4556 13.125 21.9948 13.125C24.5767 13.125 24.8734 13.1385 25.8572 13.1811C26.6366 13.196 27.4077 13.3436 28.1372 13.6178C29.3952 14.105 30.39 15.098 30.8784 16.354C31.1565 17.0912 31.3048 17.871 31.3167 18.6587C31.375 19.6546 31.375 19.98 31.375 22.5166C31.375 25.0532 31.3604 25.3859 31.3167 26.3704C31.3012 27.1482 31.1533 27.9177 30.8794 28.646C30.3898 29.9016 29.3949 30.8942 28.1372 31.3822C27.4087 31.6548 26.6392 31.8021 25.8614 31.8178C24.8672 31.875 24.5413 31.875 21.9948 31.875ZM21.9594 14.7707C19.4129 14.7707 19.1485 14.7831 18.1542 14.8278C17.5608 14.8357 16.9731 14.945 16.4166 15.1512C15.595 15.4651 14.9448 16.1117 14.627 16.9309C14.419 17.4926 14.3095 18.0859 14.3032 18.6847C14.2481 19.6921 14.2481 19.9561 14.2481 22.4813C14.2481 24.9763 14.2574 25.2788 14.3032 26.2799C14.3126 26.8727 14.422 27.4597 14.627 28.0161C14.9452 28.8347 15.5953 29.4808 16.4166 29.7948C16.9727 30.0023 17.5606 30.1117 18.1542 30.1181C19.162 30.1763 19.4275 30.1763 21.9594 30.1763C24.5132 30.1763 24.7776 30.1638 25.7635 30.1181C26.3574 30.1109 26.9455 30.0015 27.5022 29.7948C28.3189 29.4781 28.9648 28.8335 29.2824 28.0181C29.49 27.456 29.5995 26.8624 29.6062 26.2633H29.6176C29.6624 25.2695 29.6624 25.0044 29.6624 22.4647C29.6624 19.9249 29.651 19.6578 29.6062 18.665C29.5969 18.0729 29.4874 17.4866 29.2824 16.9309C28.9655 16.1144 28.3195 15.4685 27.5022 15.1512C26.9456 14.944 26.3574 14.8346 25.7635 14.8278C24.7568 14.7707 24.4934 14.7707 21.9594 14.7707ZM21.9948 27.2831C20.0479 27.2844 18.2921 26.1144 17.5461 24.3187C16.8001 22.5231 17.2109 20.4555 18.5869 19.0802C19.963 17.705 22.0332 17.293 23.8321 18.0364C25.631 18.7797 26.8042 20.532 26.8046 22.4761C26.8018 25.1281 24.6507 27.278 21.9948 27.2831ZM21.9948 19.3552C20.2699 19.3552 18.8715 20.7516 18.8715 22.474C18.8715 24.1965 20.2699 25.5928 21.9948 25.5928C23.7197 25.5928 25.1181 24.1965 25.1181 22.474C25.1141 20.7532 23.7181 19.3592 21.9948 19.3552ZM26.992 18.614C26.373 18.6117 25.8727 18.1094 25.8739 17.4913C25.875 16.8732 26.3772 16.3727 26.9962 16.3727C27.6152 16.3727 28.1173 16.8731 28.1185 17.4913C28.1188 17.7895 28.0001 18.0755 27.7887 18.2862C27.5774 18.4969 27.2907 18.6149 26.992 18.614Z" fill="#111827"/>
</svg>
