<svg width="44" height="45" viewBox="0 0 44 45" fill="none" xmlns="http://www.w3.org/2000/svg">
<path fill-rule="evenodd" clip-rule="evenodd" d="M16.8121 15.6533C16.8121 16.6908 16.0221 17.5305 14.7866 17.5305C13.5993 17.5305 12.8092 16.6908 12.8337 15.6533C12.8092 14.5652 13.5992 13.75 14.8103 13.75C16.0221 13.75 16.7884 14.5652 16.8121 15.6533ZM12.933 31.0993V19.0136H16.6891V31.0986H12.933V31.0993Z" fill="#111827"/>
<path fill-rule="evenodd" clip-rule="evenodd" d="M19.6998 22.8705C19.6998 21.363 19.6501 20.0779 19.6004 19.0151H22.863L23.0364 20.6708H23.1105C23.6049 19.9044 24.8403 18.7438 26.8422 18.7438C29.3131 18.7438 31.1667 20.3751 31.1667 23.9325V31.1008H27.4106V24.4032C27.4106 22.8453 26.8674 21.7832 25.5081 21.7832C24.4698 21.7832 23.8524 22.4999 23.6056 23.1914C23.5063 23.4389 23.4574 23.7843 23.4574 24.1312V31.1008H19.7013V22.8705H19.6998Z" fill="#111827"/>
</svg>
