<svg width="572" height="301" viewBox="0 0 572 301" fill="none" xmlns="http://www.w3.org/2000/svg">
<path d="M69.5 139C107.884 139 139 107.884 139 69.5C139 31.1162 107.884 0 69.5 0C31.1162 0 0 31.1162 0 69.5C0 107.884 31.1162 139 69.5 139Z" fill="#AFD787"/>
<path d="M359.5 179C395.675 179 425 149.675 425 113.5C425 77.3254 395.675 48 359.5 48C323.325 48 294 77.3254 294 113.5C294 149.675 323.325 179 359.5 179Z" fill="#AFD787"/>
<path d="M214.5 210C241.838 210 264 187.838 264 160.5C264 133.162 241.838 111 214.5 111C187.162 111 165 133.162 165 160.5C165 187.838 187.162 210 214.5 210Z" fill="#AFD787"/>
<path d="M487.5 206C505.449 206 520 191.449 520 173.5C520 155.551 505.449 141 487.5 141C469.551 141 455 155.551 455 173.5C455 191.449 469.551 206 487.5 206Z" fill="#AFD787"/>
<path d="M73 264L66 262.005L66.0145 261.241L68.1116 145.404L68.2164 139.628L68.22 139.459L68.5852 119.222L69.1167 89.8879V89.8842L69.4783 70H69.6699L70.0387 91.5413L70.5196 119.578L70.8631 139.474V139.621L70.8776 140.44V140.444L71.5429 179.224L71.6116 183.078L72.9855 263.228L73 264Z" fill="#553F26"/>
<path d="M363 297L356 295.118L356.014 294.397L358.112 185.128L358.216 179.68L358.22 179.521L358.585 160.431L359.117 132.76V132.757L359.478 114H359.67L360.039 134.32L360.52 160.767L360.863 179.534V179.673L360.878 180.446V180.449L361.543 217.031L361.612 220.666L362.986 296.272L363 297Z" fill="#553F26"/>
<path d="M217 299L212 297.581L212.01 297.037L213.508 214.638L213.583 210.529L213.586 210.409L213.847 196.014L214.226 175.147V175.144L214.485 161H214.621L214.885 176.323L215.228 196.267L215.474 210.419V210.524L215.484 211.107V211.109L215.959 238.695L216.008 241.437L216.99 298.451L217 299Z" fill="#553F26"/>
<path d="M489 264L486 263.074L486.006 262.72L486.905 208.981L486.95 206.302L486.951 206.223L487.108 196.835L487.336 183.226V183.225L487.491 174H487.573L487.731 183.993L487.937 197L488.084 206.23V206.298L488.09 206.678V206.68L488.376 224.671L488.405 226.459L488.994 263.642L489 264Z" fill="#553F26"/>
<path d="M80.9881 174.373L69.4648 180.442L71.0707 183.493L82.594 177.424L80.9881 174.373Z" fill="#553F26"/>
<path d="M370.327 212.531L359.467 218.251L360.98 221.127L371.84 215.407L370.327 212.531Z" fill="#553F26"/>
<path d="M222.682 235.165L214.475 239.487L215.619 241.661L223.826 237.338L222.682 235.165Z" fill="#553F26"/>
<path d="M492.739 222.236L487.369 225.064L488.117 226.485L493.487 223.657L492.739 222.236Z" fill="#553F26"/>
<path d="M2.5 234L94 274L218 299.5L290.5 290L378.5 296L435.5 274.5L501.5 260L571 271" stroke="#553F26" stroke-width="2"/>
<circle cx="19" cy="48" r="8" fill="#FF7823"/>
<path opacity="0.2" d="M12.9817 43C11.2854 46.9638 13.1269 51.5508 17.0947 53.2453C18.6001 53.8882 20.2696 54.0425 21.8675 53.6863C23.4654 53.3302 24.9109 52.4816 26 51.2604C24.3039 55.2243 19.7124 57.0642 15.7444 55.3698C11.7765 53.6755 9.93476 49.0885 11.6308 45.1246C11.9631 44.3481 12.4193 43.6305 12.9817 43Z" fill="black"/>
<circle cx="103" cy="21" r="8" fill="#FF7823"/>
<path opacity="0.2" d="M96.9817 16C95.2854 19.9638 97.1269 24.5508 101.095 26.2453C102.6 26.8882 104.27 27.0425 105.868 26.6863C107.465 26.3302 108.911 25.4816 110 24.2604C108.304 28.2243 103.712 30.0642 99.7444 28.3698C95.7765 26.6755 93.9348 22.0885 95.6308 18.1246C95.9631 17.3481 96.4193 16.6305 96.9817 16Z" fill="black"/>
<circle cx="11" cy="101" r="8" fill="#FF7823"/>
<path opacity="0.2" d="M4.98168 96C3.28543 99.9638 5.1269 104.551 9.09473 106.245C10.6001 106.888 12.2696 107.042 13.8675 106.686C15.4654 106.33 16.9109 105.482 18 104.26C16.3039 108.224 11.7124 110.064 7.74442 108.37C3.77648 106.675 1.93476 102.089 3.63082 98.1246C3.96309 97.3481 4.4193 96.6305 4.98168 96Z" fill="black"/>
<circle cx="134" cy="85" r="8" fill="#FF7823"/>
<path opacity="0.2" d="M127.982 80C126.285 83.9638 128.127 88.5508 132.095 90.2453C133.6 90.8882 135.27 91.0425 136.868 90.6863C138.465 90.3302 139.911 89.4816 141 88.2604C139.304 92.2243 134.712 94.0642 130.744 92.3698C126.776 90.6755 124.935 86.0885 126.631 82.1246C126.963 81.3481 127.419 80.6305 127.982 80Z" fill="black"/>
<circle cx="42" cy="119" r="8" fill="#FF7823"/>
<path opacity="0.2" d="M35.9817 114C34.2854 117.964 36.1269 122.551 40.0947 124.245C41.6001 124.888 43.2696 125.042 44.8675 124.686C46.4654 124.33 47.9109 123.482 49 122.26C47.3039 126.224 42.7124 128.064 38.7444 126.37C34.7765 124.675 32.9348 120.089 34.6308 116.125C34.9631 115.348 35.4193 114.631 35.9817 114Z" fill="black"/>
<circle cx="120" cy="70" r="8" fill="#FF7823"/>
<path opacity="0.2" d="M113.982 65C112.285 68.9638 114.127 73.5508 118.095 75.2453C119.6 75.8882 121.27 76.0425 122.868 75.6863C124.465 75.3302 125.911 74.4816 127 73.2604C125.304 77.2243 120.712 79.0642 116.744 77.3698C112.776 75.6755 110.935 71.0885 112.631 67.1246C112.963 66.3481 113.419 65.6305 113.982 65Z" fill="black"/>
<circle cx="253" cy="139" r="7" fill="#FF7823"/>
<path opacity="0.2" d="M247.734 134.625C246.25 138.093 247.861 142.107 251.333 143.59C252.65 144.152 254.111 144.287 255.509 143.976C256.907 143.664 258.172 142.921 259.125 141.853C257.641 145.321 253.623 146.931 250.151 145.449C246.679 143.966 245.068 139.952 246.552 136.484C246.843 135.805 247.242 135.177 247.734 134.625Z" fill="black"/>
<circle cx="397" cy="71" r="7" fill="#FF7823"/>
<path opacity="0.2" d="M391.734 66.625C390.25 70.0933 391.861 74.1069 395.333 75.5896C396.65 76.1522 398.111 76.2872 399.509 75.9755C400.907 75.6639 402.172 74.9214 403.125 73.8528C401.641 77.3213 397.623 78.9311 394.151 77.4486C390.679 75.966 389.068 71.9525 390.552 68.484C390.843 67.8046 391.242 67.1767 391.734 66.625Z" fill="black"/>
<circle cx="397" cy="159" r="7" fill="#FF7823"/>
<path opacity="0.2" d="M391.734 154.625C390.25 158.093 391.861 162.107 395.333 163.59C396.65 164.152 398.111 164.287 399.509 163.976C400.907 163.664 402.172 162.921 403.125 161.853C401.641 165.321 397.623 166.931 394.151 165.449C390.679 163.966 389.068 159.952 390.552 156.484C390.843 155.805 391.242 155.177 391.734 154.625Z" fill="black"/>
<circle cx="305" cy="107" r="7" fill="#FF7823"/>
<path opacity="0.2" d="M299.734 102.625C298.25 106.093 299.861 110.107 303.333 111.59C304.65 112.152 306.111 112.287 307.509 111.976C308.907 111.664 310.172 110.921 311.125 109.853C309.641 113.321 305.623 114.931 302.151 113.449C298.679 111.966 297.068 107.952 298.552 104.484C298.843 103.805 299.242 103.177 299.734 102.625Z" fill="black"/>
<circle cx="312" cy="85" r="7" fill="#FF7823"/>
<path opacity="0.2" d="M306.734 80.625C305.25 84.0933 306.861 88.1069 310.333 89.5896C311.65 90.1522 313.111 90.2872 314.509 89.9755C315.907 89.6639 317.172 88.9214 318.125 87.8528C316.641 91.3213 312.623 92.9311 309.151 91.4486C305.679 89.966 304.068 85.9525 305.552 82.484C305.843 81.8046 306.242 81.1767 306.734 80.625Z" fill="black"/>
<circle cx="325" cy="151" r="7" fill="#FF7823"/>
<path opacity="0.2" d="M319.734 146.625C318.25 150.093 319.861 154.107 323.333 155.59C324.65 156.152 326.111 156.287 327.509 155.976C328.907 155.664 330.172 154.921 331.125 153.853C329.641 157.321 325.623 158.931 322.151 157.449C318.679 155.966 317.068 151.952 318.552 148.484C318.843 147.805 319.242 147.177 319.734 146.625Z" fill="black"/>
<circle cx="339" cy="142" r="7" fill="#FF7823"/>
<path opacity="0.2" d="M333.734 137.625C332.25 141.093 333.861 145.107 337.333 146.59C338.65 147.152 340.111 147.287 341.509 146.976C342.907 146.664 344.172 145.921 345.125 144.853C343.641 148.321 339.623 149.931 336.151 148.449C332.679 146.966 331.068 142.952 332.552 139.484C332.843 138.805 333.242 138.177 333.734 137.625Z" fill="black"/>
<circle cx="169" cy="147" r="7" fill="#FF7823"/>
<path opacity="0.2" d="M163.734 142.625C162.25 146.093 163.861 150.107 167.333 151.59C168.65 152.152 170.111 152.287 171.509 151.976C172.907 151.664 174.172 150.921 175.125 149.853C173.641 153.321 169.623 154.931 166.151 153.449C162.679 151.966 161.068 147.952 162.552 144.484C162.843 143.805 163.242 143.177 163.734 142.625Z" fill="black"/>
<circle cx="186" cy="155" r="7" fill="#FF7823"/>
<path opacity="0.2" d="M180.734 150.625C179.25 154.093 180.861 158.107 184.333 159.59C185.65 160.152 187.111 160.287 188.509 159.976C189.907 159.664 191.172 158.921 192.125 157.853C190.641 161.321 186.623 162.931 183.151 161.449C179.679 159.966 178.068 155.952 179.552 152.484C179.843 151.805 180.242 151.177 180.734 150.625Z" fill="black"/>
<circle cx="228" cy="189" r="7" fill="#FF7823"/>
<path opacity="0.2" d="M222.734 184.625C221.25 188.093 222.861 192.107 226.333 193.59C227.65 194.152 229.111 194.287 230.509 193.976C231.907 193.664 233.172 192.921 234.125 191.853C232.641 195.321 228.623 196.931 225.151 195.449C221.679 193.966 220.068 189.952 221.552 186.484C221.843 185.805 222.242 185.177 222.734 184.625Z" fill="black"/>
<circle cx="172" cy="168" r="7" fill="#FF7823"/>
<path opacity="0.2" d="M166.734 163.625C165.25 167.093 166.861 171.107 170.333 172.59C171.65 173.152 173.111 173.287 174.509 172.976C175.907 172.664 177.172 171.921 178.125 170.853C176.641 174.321 172.623 175.931 169.151 174.449C165.679 172.966 164.068 168.952 165.552 165.484C165.843 164.805 166.242 164.177 166.734 163.625Z" fill="black"/>
<circle cx="242" cy="125" r="7" fill="#FF7823"/>
<path opacity="0.2" d="M236.734 120.625C235.25 124.093 236.861 128.107 240.333 129.59C241.65 130.152 243.111 130.287 244.509 129.976C245.907 129.664 247.172 128.921 248.125 127.853C246.641 131.321 242.623 132.931 239.151 131.449C235.679 129.966 234.068 125.952 235.552 122.484C235.843 121.805 236.242 121.177 236.734 120.625Z" fill="black"/>
<circle cx="35" cy="64" r="8" fill="#FF7823"/>
<path opacity="0.2" d="M28.9817 59C27.2854 62.9638 29.1269 67.5508 33.0947 69.2453C34.6001 69.8882 36.2696 70.0425 37.8675 69.6863C39.4654 69.3302 40.9109 68.4816 42 67.2604C40.3039 71.2243 35.7124 73.0642 31.7444 71.3698C27.7765 69.6755 25.9348 65.0885 27.6308 61.1246C27.9631 60.3481 28.4193 59.6305 28.9817 59Z" fill="black"/>
<circle cx="113" cy="29" r="8" fill="#FF7823"/>
<path opacity="0.2" d="M106.982 24C105.285 27.9638 107.127 32.5508 111.095 34.2453C112.6 34.8882 114.27 35.0425 115.868 34.6863C117.465 34.3302 118.911 33.4816 120 32.2604C118.304 36.2243 113.712 38.0642 109.744 36.3698C105.776 34.6755 103.935 30.0885 105.631 26.1246C105.963 25.3481 106.419 24.6305 106.982 24Z" fill="black"/>
<circle cx="95" cy="131" r="8" fill="#FF7823"/>
<path opacity="0.2" d="M88.9817 126C87.2854 129.964 89.1269 134.551 93.0947 136.245C94.6001 136.888 96.2696 137.042 97.8675 136.686C99.4654 136.33 100.911 135.482 102 134.26C100.304 138.224 95.7124 140.064 91.7444 138.37C87.7765 136.675 85.9348 132.089 87.6308 128.125C87.9631 127.348 88.4193 126.631 88.9817 126Z" fill="black"/>
<circle cx="501" cy="199" r="6" fill="#FF7823"/>
<path opacity="0.2" d="M496.486 195.25C495.214 198.223 496.595 201.663 499.571 202.934C500.7 203.416 501.952 203.532 503.151 203.265C504.349 202.998 505.433 202.361 506.25 201.445C504.978 204.418 501.534 205.798 498.558 204.527C495.582 203.257 494.201 199.816 495.473 196.843C495.722 196.261 496.064 195.723 496.486 195.25Z" fill="black"/>
<circle cx="509" cy="187" r="6" fill="#FF7823"/>
<path opacity="0.2" d="M504.486 183.25C503.214 186.223 504.595 189.663 507.571 190.934C508.7 191.416 509.952 191.532 511.151 191.265C512.349 190.998 513.433 190.361 514.25 189.445C512.978 192.418 509.534 193.798 506.558 192.527C503.582 191.257 502.201 187.816 503.473 184.843C503.722 184.261 504.064 183.723 504.486 183.25Z" fill="black"/>
</svg>
