<svg width="48" height="43" viewBox="0 0 48 43" fill="none" xmlns="http://www.w3.org/2000/svg">
<path d="M23.9184 12.5C20.2422 12.5 16.79 12.7812 14.9519 13.1746C13.7272 13.4558 12.6678 14.2996 12.4459 15.5938C12.2241 16.9429 12 18.9688 12 21.5C12 24.0312 12.2219 26 12.5003 27.4062C12.7244 28.6433 13.7816 29.5442 15.0063 29.8254C16.9575 30.2188 20.2966 30.5 23.9728 30.5C27.6491 30.5 30.9881 30.2188 32.9372 29.8254C34.1641 29.5442 35.2212 28.7004 35.4431 27.4062C35.6672 26 35.9456 23.9763 36 21.4451C36 18.9138 35.7216 16.8879 35.4431 15.4817C35.2212 14.2446 34.1641 13.3438 32.9372 13.0625C30.9881 12.7812 27.5925 12.5 23.9184 12.5ZM23.9184 13.625C27.9275 13.625 31.1556 13.9612 32.7153 14.2424C33.5506 14.4688 34.2184 15.0313 34.3294 15.7629C34.6644 17.5625 34.8862 19.4763 34.8862 21.4451C34.8319 23.8621 34.5534 25.8308 34.3294 27.2371C34.1641 28.3049 33.0503 28.6433 32.7153 28.7576C30.7097 29.1509 27.3684 29.4299 24.0272 29.4299C20.6859 29.4299 17.2903 29.2058 15.3412 28.7576C14.5059 28.5312 13.8381 27.9687 13.7272 27.2371C13.2812 25.6616 13.1137 23.5808 13.1137 21.5C13.1137 18.9116 13.3378 17 13.5597 15.8201C13.7272 14.75 14.8953 14.4116 15.1738 14.2996C17.0119 13.9062 20.4097 13.625 23.9184 13.625ZM20.91 17V26L28.7062 21.5L20.91 17ZM22.0237 18.9138L26.4787 21.5L22.0237 24.0862V18.9138Z" fill="#111827"/>
</svg>
